<svg id="Capa_1" enable-background="new 0 0 512 512" height="512" viewBox="0 0 512 512" width="512" xmlns="http://www.w3.org/2000/svg"><g><path d="m477 222h-127v-187c0-19.33-15.67-35-35-35h-280c-19.33 0-35 15.67-35 35v302c0 12.887 15.179 19.775 24.878 11.289l75.758-66.289h101.364v148.787l-55.606 55.606c-4.29 4.29-5.573 10.741-3.252 16.347 2.322 5.605 7.791 9.26 13.858 9.26h320c19.299 0 35-15.701 35-35v-220c0-19.299-15.701-35-35-35zm-382 30c-3.633 0-7.143 1.319-9.877 3.711l-55.123 48.232v-268.943c0-2.761 2.239-5 5-5h280c2.761 0 5 2.239 5 5v212c0 2.761-2.239 5-5 5zm387 225c0 2.757-2.243 5-5 5h-283.787l34.394-34.394c2.813-2.812 4.393-6.627 4.393-10.606v-155h83c17.632 0 32.212-13.04 34.639-30h127.361c2.757 0 5 2.243 5 5z"/><path d="m373.755 313.389c-.078-.208-.161-.411-.248-.613-2.831-6.583-9.397-10.776-16.563-10.776-6.652 0-12.699 3.824-15.592 9.814-.265.549-.492 1.034-.682 1.537l-45.06 118.31c-2.949 7.742.937 16.408 8.679 19.356s16.408-.937 19.356-8.679l7.543-19.805h51.69l7.458 19.762c2.925 7.751 11.58 11.663 19.33 8.737 7.75-2.925 11.662-11.579 8.738-19.33zm-31.14 79.145 14.538-38.17 14.405 38.17z"/><path d="m235 121c8.284 0 15-6.716 15-15s-6.716-15-15-15h-45v-15c0-8.284-6.716-15-15-15s-15 6.716-15 15v15h-45c-8.284 0-15 6.716-15 15s6.716 15 15 15h5.978c3.123 23.867 13.59 45.455 29.054 62.414-10.69 4.857-22.545 7.586-35.032 7.586-8.284 0-15 6.716-15 15s6.716 15 15 15c21.972 0 42.521-6.198 60-16.931 17.479 10.733 38.028 16.931 60 16.931 8.284 0 15-6.716 15-15s-6.716-15-15-15c-12.487 0-24.342-2.729-35.032-7.586 15.464-16.959 25.932-38.547 29.054-62.414zm-60 45.148c-12.068-12.039-20.523-27.681-23.648-45.148h47.295c-3.124 17.467-11.579 33.11-23.647 45.148z"/><path d="m116 421h-45v-45c0-8.284-6.716-15-15-15s-15 6.716-15 15v60c0 8.284 6.716 15 15 15h60c8.284 0 15-6.716 15-15s-6.716-15-15-15z"/><path d="m396 91h45v45c0 8.284 6.716 15 15 15s15-6.716 15-15v-60c0-8.284-6.716-15-15-15h-60c-8.284 0-15 6.716-15 15s6.716 15 15 15z"/></g></svg>